# xmcd
#
# Track frame offsets: 
#        150
#        12372
#        33123
#        51981
#        76247
#        90472
#        108033
#        123617
#        139005
#        159976
#        171483
#        186586
#        209059
#        224710
#        238082
#
# Disc length: 3544 seconds
#
# Revision: 0
# Processed by: cddbd v1.5.2PL0 Copyright (c) Steve Scherf et al.
# Submitted via: ExactAudioCopy v1.0b3
#
DISCID=d70dd60f
DTITLE=Robert Johnson's Backbone - Yonder Come The Blues
DYEAR=2009
DGENRE=Blues
TTITLE0=Last Fair Deal
TTITLE1=Yonder Come The Blues
TTITLE2=I Just Wanna Make Love To You
TTITLE3=Kind Hearted Woman
TTITLE4=Tell You A Secret
TTITLE5=Lonnie's Blues
TTITLE6=Come In My Kitchen
TTITLE7=When You Have A Good Friend
TTITLE8=Hesitation BLues
TTITLE9=Stop Breakin' Down
TTITLE10=32 - 20 Blues
TTITLE11=Morning Blues
TTITLE12=Ride On!
TTITLE13=Crow Jane
TTITLE14=Death Has No Mercy
EXTD=
EXTT0=
EXTT1=
EXTT2=
EXTT3=
EXTT4=
EXTT5=
EXTT6=
EXTT7=
EXTT8=
EXTT9=
EXTT10=
EXTT11=
EXTT12=
EXTT13=
EXTT14=
PLAYORDER=
